#!OML:ASF F:\VICON\USERDATA\INSTALL\rory3\rory3.ASF
:FULLY-SPECIFIED
:DEGREES
138
root 1.011 17.8334 -1.31003 -6.35184 -52.4726 8.13895
lowerback 12.0976 0.674593 -4.05645
upperback 1.62386 0.262229 -1.03914
thorax -5.09528 0.179188 1.15782
lowerneck -18.7507 -0.0680134 -10.5361
upperneck 38.0227 2.86304 1.03818
head 16.843 -0.472397 2.79795
rclavicle 2.65874e-015 8.94531e-015
rhumerus -38.015 -7.54939 -81.5225
rradius 41.9342
rwrist 1.41292
rhand -14.9297 6.72796
rfingers 7.12502
rthumb 11.2325 -22.9513
lclavicle 2.65874e-015 8.94531e-015
lhumerus -27.0384 -1.48317 84.4038
lradius 28.3863
lwrist -2.83443
lhand -16.4384 28.4693
lfingers 7.12502
lthumb 9.77724 58.2224
rfemur -24.8114 -2.38221 12.5176
rtibia 64.4573
rfoot -6.41978 -5.30701
rtoes 8.66782
lfemur 0.0781659 4.95462 -29.9226
ltibia 14.8546
lfoot -10.2787 3.18078
ltoes -5.8971
139
root 0.953658 17.8186 -1.24424 -6.35682 -52.242 8.1867
lowerback 12.2589 0.648412 -4.18828
upperback 1.62372 0.202063 -1.01856
thorax -5.1825 0.15361 1.26273
lowerneck -18.7645 -0.088364 -10.3744
upperneck 37.9686 2.83426 0.885325
head 16.8271 -0.478837 2.69537
rclavicle 9.25591e-014 -2.3059e-014
rhumerus -37.9418 -7.55611 -81.569
rradius 41.8747
rwrist 1.60321
rhand -14.9434 6.62922
rfingers 7.12502
rthumb 11.2194 -23.0508
lclavicle 9.25591e-014 -2.3059e-014
lhumerus -26.8326 -1.64328 84.4576
lradius 28.588
lwrist -2.83743
lhand -16.5413 28.3779
lfingers 7.12502
lthumb 9.67793 58.1356
rfemur -25.5412 -2.61775 12.6687
rtibia 63.5403
rfoot -7.44083 -5.69842
rtoes 11.0399
lfemur 0.169983 5.04687 -30.011
ltibia 15.2604
lfoot -10.7348 3.05429
ltoes -6.45587
140
root 0.89848 17.7994 -1.17997 -6.37492 -52.111 8.36658
lowerback 12.3416 0.663293 -4.36475
upperback 1.581 0.191722 -1.02833
thorax -5.27351 0.154184 1.35294
lowerneck -18.662 -0.124044 -10.3657
upperneck 37.8688 2.74929 0.911399
head 16.7539 -0.500315 2.6864
rclavicle 9.88954e-015 1.92821e-014
rhumerus -37.9165 -7.70657 -81.5351
rradius 41.7929
rwrist 2.02149
rhand -14.9142 6.71715
rfingers 7.12502
rthumb 11.2475 -22.9613
lclavicle 9.88954e-015 1.92821e-014
lhumerus -26.6838 -2.04644 84.579
lradius 28.8152
lwrist -2.60197
lhand -16.7114 28.3003
lfingers 7.12502
lthumb 9.51383 58.0655
rfemur -26.4161 -2.7948 12.7484
rtibia 62.493
rfoot -8.27753 -5.84145
rtoes 12.1352
lfemur 0.20389 5.02463 -30.2087
ltibia 15.562
lfoot -11.1544 3.29447
ltoes -6.65386
141
root 0.841173 17.7812 -1.12227 -6.25544 -52.1011 8.41143
lowerback 12.372 0.670068 -4.53111
upperback 1.56116 0.178904 -0.980811
thorax -5.31132 0.152804 1.49844
lowerneck -18.5938 -0.145162 -10.437
upperneck 37.7488 2.71473 0.954309
head 16.6743 -0.509684 2.70818
rclavicle 2.87492e-014 -1.92821e-014
rhumerus -37.9035 -7.42681 -81.554
rradius 41.8348
rwrist 2.08951
rhand -14.8602 6.66842
rfingers 7.12502
rthumb 11.2996 -23.0072
lclavicle 2.87492e-014 -1.92821e-014
lhumerus -26.5291 -2.49333 84.7169
lradius 29.07
lwrist -2.29682
lhand -16.8645 28.4118
lfingers 7.12502
lthumb 9.36612 58.1837
rfemur -27.3243 -2.84244 12.98
rtibia 61.306
rfoot -8.79235 -5.86783
rtoes 10.8733
lfemur 0.269497 5.05349 -30.2856
ltibia 15.6995
lfoot -11.5483 3.5482
ltoes -6.92241
142
root 0.772558 17.769 -1.04052 -6.17065 -52.3312 8.41759
lowerback 12.1148 0.714575 -4.46758
upperback 1.66354 0.263691 -0.985119
thorax -5.06523 0.186664 1.44577
lowerneck -18.5849 -0.159943 -10.4201
upperneck 37.605 2.71528 0.874572
head 16.5999 -0.508621 2.66703
rclavicle -1.1281e-014 -4.77083e-015
rhumerus -37.8222 -7.13315 -81.6243
rradius 41.839
rwrist 2.01767
rhand -14.8102 6.72086
rfingers 7.12502
rthumb 11.3478 -22.9521
lclavicle -1.1281e-014 -4.77083e-015
lhumerus -26.268 -2.82806 84.782
lradius 29.2584
lwrist -2.21837
lhand -16.931 28.603
lfingers 7.12502
lthumb 9.30188 58.3778
rfemur -28.055 -2.65912 13.1451
rtibia 59.9756
rfoot -9.1102 -5.6892
rtoes 11.2747
lfemur 0.53701 4.73206 -30.4393
ltibia 15.7149
lfoot -11.7 3.87329
ltoes -7.28805
143
root 0.70941 17.7621 -0.974738 -6.10545 -52.1268 8.49518
lowerback 12.1208 0.660918 -4.6052
upperback 1.6711 0.176707 -0.94643
thorax -5.05604 0.146534 1.57804
lowerneck -18.5046 -0.178899 -10.4825
upperneck 37.4826 2.70832 0.842464
head 16.5181 -0.516254 2.65878
rclavicle 9.14161e-014 -3.12092e-014
rhumerus -37.7629 -6.99294 -81.5878
rradius 41.7145
rwrist 2.04149
rhand -14.7892 6.93977
rfingers 7.12502
rthumb 11.3681 -22.7321
lclavicle 9.14161e-014 -3.12092e-014
lhumerus -26.0114 -3.13334 84.912
lradius 29.3246
lwrist -2.07502
lhand -17.0232 28.5087
lfingers 7.12502
lthumb 9.21294 58.2875
rfemur -28.6692 -2.71537 13.2543
rtibia 58.4485
rfoot -9.32752 -5.64492
rtoes 12.6941
lfemur 0.746628 4.5869 -30.5488
ltibia 15.7361
lfoot -11.7698 3.5704
ltoes -7.11497
144
root 0.645755 17.7561 -0.908977 -6.03254 -51.8881 8.53872
lowerback 12.1903 0.607404 -4.75257
upperback 1.65664 0.08568 -0.883347
thorax -5.10453 0.106467 1.74189
lowerneck -18.4415 -0.204772 -10.5516
upperneck 37.4346 2.68294 0.843785
head 16.4797 -0.532679 2.6648
rclavicle 3.37934e-014 -9.93923e-016
rhumerus -37.7207 -6.94055 -81.4966
rradius 41.5061
rwrist 2.17186
rhand -14.7491 7.17628
rfingers 7.12502
rthumb 11.4067 -22.4935
lclavicle 3.37934e-014 -9.93923e-016
lhumerus -25.8164 -3.45011 85.104
lradius 29.42
lwrist -1.95831
lhand -16.9704 28.4583
lfingers 7.12502
lthumb 9.26387 58.2347
rfemur -29.1223 -2.69795 13.3315
rtibia 56.7196
rfoot -9.76582 -5.27057
rtoes 14.0248
lfemur 1.02046 4.5435 -30.6198
ltibia 15.6911
lfoot -11.9318 3.38914
ltoes -6.47412
145
root 0.585263 17.7429 -0.842265 -5.80182 -51.7136 8.30595
lowerback 12.3259 0.569762 -4.66282
upperback 1.67556 0.0454275 -0.793947
thorax -5.15707 0.0866143 1.7918
lowerneck -18.4597 -0.268481 -10.6643
upperneck 37.4406 2.605 0.911949
head 16.4913 -0.570855 2.70065
rclavicle -3.47873e-015 -8.74653e-015
rhumerus -37.6638 -6.91591 -81.4578
rradius 41.3445
rwrist 2.21356
rhand -14.815 7.11877
rfingers 7.12502
rthumb 11.3432 -22.5545
lclavicle -3.47873e-015 -8.74653e-015
lhumerus -25.6431 -3.51755 85.2694
lradius 29.6302
lwrist -2.09815
lhand -17.1032 28.2695
lfingers 7.12502
lthumb 9.13577 58.0517
rfemur -29.5277 -3.03912 13.8282
rtibia 54.7372
rfoot -9.73421 -5.11881
rtoes 8.11946
lfemur 1.3636 4.47721 -30.5194
ltibia 15.6286
lfoot -12.0791 3.28437
ltoes -6.73024
146
root 0.522463 17.734 -0.772469 -5.42471 -51.5705 7.77269
lowerback 12.5244 0.547129 -4.35447
upperback 1.70719 0.0540033 -0.667626
thorax -5.23397 0.0871511 1.74933
lowerneck -18.4311 -0.350163 -10.8092
upperneck 37.4836 2.46224 1.0865
head 16.5118 -0.626748 2.77751
rclavicle -2.21148e-014 8.54774e-015
rhumerus -37.6645 -6.83876 -81.4843
rradius 41.2288
rwrist 1.91559
rhand -14.8736 7.25815
rfingers 7.12502
rthumb 11.2866 -22.4182
lclavicle -2.21148e-014 8.54774e-015
lhumerus -25.4343 -3.67015 85.4216
lradius 29.7433
lwrist -2.16547
lhand -17.2557 27.9319
lfingers 7.12502
lthumb 8.98865 57.7204
rfemur -29.6918 -3.20542 14.4378
rtibia 52.6228
rfoot -9.86557 -4.92794
rtoes 6.26355
lfemur 1.82218 4.41911 -30.1994
ltibia 15.5608
lfoot -12.1882 3.24159
ltoes -6.97436
147
root 0.453075 17.7289 -0.701858 -5.23372 -51.4177 7.54506
lowerback 12.5905 0.537132 -4.23867
upperback 1.77127 0.0558656 -0.635258
thorax -5.20301 0.0842454 1.71789
lowerneck -18.4794 -0.435783 -10.8292
upperneck 37.5472 2.31023 1.18441
head 16.5661 -0.681325 2.79876
rclavicle -3.73218e-014 -2.78299e-015
rhumerus -37.6536 -6.62241 -81.674
rradius 41.1615
rwrist 1.20405
rhand -14.669 7.82787
rfingers 7.12502
rthumb 11.484 -21.8376
lclavicle -3.73218e-014 -2.78299e-015
lhumerus -25.1684 -4.37104 85.5559
lradius 29.8676
lwrist -2.0114
lhand -17.1188 27.7564
lfingers 7.12502
lthumb 9.12071 57.5392
rfemur -29.8661 -3.29516 14.7745
rtibia 50.4183
rfoot -9.84199 -4.64404
rtoes 7.32723
lfemur 2.27905 4.39304 -30.0719
ltibia 15.4146
lfoot -12.3813 3.24476
ltoes -6.48678
